P2
97 52
255
193 193 193 193 193 193 193 193 193 193 193 193 193 193 193 193 193 193 193 193 193 193 193 193 193 193 193 193 193 193 193 193 193 193 193 193 193 193 193 193 193 193 193 193 193 193 193 193 193 193 193 193 193 193 193 193 193 193 193 193 193 193 193 193 193 193 193 193 193 193 193 193 193 193 193 193 193 193 193 193 193 193 193 193 193 193 193 193 193 193 193 193 193 193 193 193 193 
193 193 193 193 193 193 193 193 193 193 193 193 193 193 193 193 193 193 193 193 193 193 193 193 193 193 193 193 193 193 193 193 193 193 193 193 193 193 193 193 193 193 193 193 193 193 193 193 193 193 193 193 193 193 193 193 193 193 193 193 193 193 193 193 193 193 193 193 193 193 193 193 193 193 193 193 193 193 193 193 193 193 193 193 193 193 193 193 193 193 193 193 193 193 193 193 193 
193 193 193 193 193 193 193 193 193 193 193 193 193 193 193 193 193 193 193 193 193 193 193 193 193 193 193 193 193 193 193 193 193 193 193 193 193 193 193 193 193 193 193 193 193 193 193 193 193 193 193 193 193 193 193 193 193 193 193 193 193 193 193 193 193 193 193 193 193 193 193 193 193 193 193 193 193 193 193 193 193 193 193 193 193 193 193 193 193 193 193 193 193 193 193 193 193 
193 193 193 193 193 193 193 193 193 193 193 193 193 193 193 193 193 193 193 193 193 193 193 193 193 193 193 193 193 193 193 193 193 193 193 193 193 193 193 193 193 193 193 193 193 193 193 193 193 193 193 193 193 193 193 193 193 193 193 193 193 193 193 193 193 193 193 193 193 193 193 193 193 193 193 193 193 193 193 193 193 193 193 193 193 193 193 193 193 193 193 193 193 193 193 193 193 
193 193 193 193 193 193 193 193 193 193 193 193 193 193 193 193 193 193 193 193 193 193 193 193 193 193 193 193 193 193 193 193 193 193 193 193 193 193 193 193 193 193 193 193 193 193 193 193 193 193 193 193 193 193 193 193 193 193 193 193 193 193 193 193 193 193 193 193 193 193 193 193 193 193 193 193 193 193 193 193 193 193 193 193 193 193 193 193 193 193 193 193 193 193 193 193 193 
193 193 193 193 193 193 193 193 193 193 193 193 193 193 193 193 193 193 193 193 193 193 193 193 193 193 193 193 193 193 193 193 193 193 193 193 193 193 193 193 193 193 193 193 193 193 193 193 193 193 193 193 193 193 193 193 193 193 193 193 193 193 193 193 188 191 193 193 193 193 193 193 193 193 193 193 193 193 193 193 193 193 193 193 193 193 193 193 193 193 193 193 193 193 193 193 193 
193 193 193 193 193 193 193 193 193 193 193 193 193 193 193 193 193 193 193 193 193 193 193 193 193 193 193 193 193 193 193 193 193 193 193 193 193 193 193 193 193 193 193 193 193 193 193 193 193 193 193 193 193 193 193 193 193 193 193 193 193 193 194 187 184 192 193 193 193 193 193 193 193 193 193 193 193 193 193 193 193 193 193 193 193 193 193 193 193 193 193 193 193 193 193 193 193 
193 193 193 193 193 193 193 193 193 193 193 193 193 193 193 193 193 193 193 193 193 192 192 192 191 191 191 191 191 191 191 192 192 192 192 193 193 193 193 193 193 193 193 193 193 193 193 193 193 193 193 193 193 193 193 193 193 193 193 193 192 194 183 181 194 193 193 193 193 193 193 193 193 193 193 193 193 193 193 193 193 193 193 193 193 193 193 193 193 193 193 193 193 193 193 193 193 
193 193 193 193 193 193 193 193 193 193 193 193 193 193 192 192 192 192 191 190 190 191 184 174 182 181 181 181 181 181 181 172 174 174 190 189 190 191 191 192 192 192 192 193 193 193 193 193 193 186 190 193 193 193 193 193 193 193 193 193 196 178 193 193 193 193 193 193 193 193 193 193 193 193 193 193 193 193 193 193 193 193 193 193 193 193 193 193 193 193 193 193 193 193 193 193 193 
193 193 193 193 193 193 193 193 193 193 193 193 192 190 184 171 172 176 183 190 193 199 214 232 231 230 230 230 230 230 231 232 232 227 206 199 193 188 183 178 173 180 191 191 192 192 193 193 193 182 193 193 193 193 193 193 193 193 194 185 180 194 192 193 193 193 193 193 193 193 193 193 193 193 193 193 193 193 193 193 193 193 193 193 193 193 193 193 193 193 193 193 193 193 193 193 193 
193 193 193 193 193 193 193 193 193 193 193 191 181 185 211 233 232 231 230 230 229 228 228 227 227 227 227 227 230 230 227 227 227 227 228 228 229 230 230 231 233 222 198 187 175 184 190 192 193 183 193 193 193 193 193 193 193 193 179 190 194 192 193 193 193 192 192 192 192 192 193 193 193 193 193 193 193 193 193 193 193 193 193 193 193 193 193 193 193 193 193 193 193 193 193 193 193 
193 193 193 193 193 193 193 193 193 193 190 176 216 231 228 227 227 227 227 227 227 227 227 227 227 227 227 230 193 193 232 227 227 227 227 227 227 227 227 227 227 227 228 230 233 211 191 176 179 193 192 192 192 192 193 194 185 182 195 192 192 192 192 192 192 193 181 174 171 181 192 193 193 193 193 193 193 193 193 193 193 193 193 193 193 193 193 193 193 193 193 193 193 193 193 193 193 
193 193 193 193 193 193 193 193 193 190 179 222 228 227 227 227 227 227 227 227 227 227 227 227 227 227 227 227 235 170 214 230 227 227 227 227 227 227 227 227 227 227 227 227 227 228 230 236 172 177 180 179 179 180 182 170 180 183 177 179 179 179 179 179 179 179 192 192 192 192 193 193 193 193 193 193 193 193 193 193 193 193 193 193 193 193 193 193 193 193 193 193 193 193 193 193 193 
193 193 193 193 193 193 193 193 191 180 223 228 227 227 227 227 227 227 227 227 227 227 227 227 227 227 227 227 227 236 160 221 229 227 227 227 227 227 227 227 227 227 227 227 227 227 228 213 188 196 195 188 191 178 181 188 187 190 194 192 192 192 192 192 192 192 192 193 193 193 193 193 193 193 193 193 193 193 193 193 193 193 193 193 193 193 193 193 193 193 193 193 193 193 193 193 193 
193 193 193 193 193 193 193 192 192 194 230 227 227 227 227 227 227 227 227 227 227 227 227 227 227 227 227 227 227 227 236 151 225 230 227 227 227 227 227 227 227 227 227 227 227 227 230 192 194 194 195 192 182 191 193 192 192 192 192 193 193 193 193 193 193 193 193 193 193 193 193 193 193 193 193 193 193 193 193 193 193 193 193 193 193 193 193 193 193 193 193 193 193 193 193 193 193 
193 193 193 193 193 193 193 192 177 221 228 227 227 227 227 227 227 227 227 227 227 227 227 227 227 227 227 227 227 227 227 236 160 204 235 227 227 227 227 227 227 227 227 227 227 227 233 180 196 197 183 184 193 193 193 193 193 193 193 193 193 193 193 193 193 193 193 193 193 193 193 193 193 193 193 193 193 193 193 193 193 193 193 193 193 193 193 193 193 193 193 193 193 193 193 193 193 
193 193 193 193 193 193 193 192 176 222 228 227 227 227 227 227 227 227 227 227 227 227 227 227 227 227 227 227 227 227 227 227 236 186 172 236 228 227 227 227 227 227 227 227 227 228 219 184 193 180 192 193 193 192 192 192 191 191 191 190 190 189 190 190 191 192 193 193 193 193 193 193 193 193 193 193 193 193 193 193 193 193 193 193 193 193 193 193 193 193 193 193 193 193 193 193 193 
193 193 193 193 193 193 193 192 191 200 229 227 227 227 227 227 227 227 227 227 227 227 227 227 227 227 227 227 227 227 227 227 227 233 217 149 228 233 228 227 227 227 227 227 227 231 202 184 184 193 192 191 190 185 175 171 182 180 188 189 197 198 199 189 178 188 190 192 193 193 193 193 193 193 193 193 193 193 193 193 193 193 193 193 193 193 193 193 193 193 193 193 193 193 193 193 193 
193 193 193 193 193 193 193 193 192 181 221 229 227 227 227 227 227 227 227 227 227 227 227 227 227 227 227 227 227 227 227 227 227 227 228 236 169 162 229 233 227 227 227 227 232 219 171 193 193 191 183 184 189 209 228 232 231 230 230 230 228 228 228 230 233 202 180 181 189 191 192 193 193 193 193 193 193 193 193 193 193 193 193 193 193 193 193 193 193 193 193 193 193 193 193 193 193 
193 193 193 193 193 193 193 193 193 190 177 206 233 229 228 227 227 227 227 227 227 227 227 227 227 227 227 227 227 227 227 227 227 227 227 227 232 235 166 176 236 233 229 233 195 185 181 193 191 173 211 231 229 228 227 227 227 227 227 227 227 227 227 227 227 228 232 218 188 178 190 191 192 193 193 193 193 193 193 193 193 193 193 193 193 193 193 193 193 193 193 193 193 193 193 193 193 
193 193 193 193 193 193 193 193 193 193 192 185 180 196 203 220 232 231 230 230 229 228 228 228 227 227 227 227 227 227 227 227 227 227 227 227 227 227 234 219 164 171 214 186 198 183 192 179 195 231 228 227 227 227 227 227 227 227 227 227 227 227 227 227 227 227 227 228 230 226 193 177 185 191 192 193 193 193 193 193 193 193 193 193 193 193 193 193 193 193 193 193 193 193 193 193 193 
193 193 193 193 193 193 193 193 193 193 193 192 191 190 191 180 173 178 183 189 193 198 201 215 233 233 233 233 233 233 232 230 230 230 229 229 229 228 228 229 236 205 161 153 154 169 186 224 233 227 227 227 227 227 227 227 227 227 227 227 227 227 227 227 227 227 227 227 227 227 229 233 210 175 191 192 193 193 193 193 193 193 193 193 193 193 193 193 193 193 193 193 193 193 193 193 193 
193 193 193 193 193 193 193 193 193 193 193 193 193 193 192 192 192 192 191 191 190 189 191 184 168 168 168 168 168 168 170 182 184 190 194 193 192 200 210 220 187 194 199 201 196 160 159 164 196 236 233 230 227 227 227 227 227 227 227 227 227 227 227 227 227 227 227 227 227 227 227 227 228 232 182 189 192 193 193 193 193 193 193 193 193 193 193 193 193 193 193 193 193 193 193 193 193 
193 193 193 193 193 193 193 193 193 193 193 193 193 193 193 193 193 193 193 193 192 169 192 192 192 192 192 192 192 192 192 191 191 190 190 190 190 193 176 174 173 173 173 173 171 198 198 198 178 152 164 191 236 233 233 229 227 227 227 227 227 227 227 227 227 227 227 227 227 227 227 227 227 227 233 183 191 192 193 193 193 193 193 193 193 193 193 193 193 193 193 193 193 193 193 193 193 
193 193 193 193 193 193 193 193 193 193 193 193 193 193 193 193 193 193 193 193 192 172 192 193 193 193 193 193 193 193 193 193 193 193 193 193 191 180 193 196 196 196 196 197 186 195 195 195 196 198 198 184 148 163 171 210 236 233 230 227 227 227 227 227 227 227 227 227 227 227 227 227 227 227 227 231 178 190 192 193 193 193 193 193 193 193 193 193 193 193 193 193 193 193 193 193 193 
193 193 193 193 193 193 193 193 193 193 193 193 193 193 193 193 193 193 193 193 192 173 195 193 193 193 193 193 193 193 193 193 193 192 194 183 183 197 194 195 195 195 195 195 183 195 195 195 195 195 195 195 198 197 198 167 150 163 193 236 233 229 227 227 227 227 227 227 227 227 227 227 227 227 227 227 228 178 190 193 193 193 193 193 193 193 193 193 193 193 193 193 193 193 193 193 193 
193 193 193 193 193 193 193 193 193 193 193 193 193 193 193 193 193 193 193 193 193 168 158 195 193 193 193 193 193 193 193 193 193 194 179 191 195 194 195 195 195 195 194 197 184 195 195 195 195 195 195 195 195 195 194 196 198 198 181 149 165 209 236 231 227 227 227 227 227 227 227 227 227 227 227 227 228 222 177 192 193 193 193 193 193 193 193 193 193 193 193 193 193 193 193 193 193 
193 193 193 193 193 193 193 193 193 193 193 193 193 193 193 193 193 193 193 193 195 150 175 194 193 193 193 193 193 193 193 193 188 180 196 194 195 195 195 195 195 195 195 183 193 194 195 195 195 195 195 195 195 195 195 195 195 195 195 198 198 167 153 185 236 232 227 227 227 227 227 227 227 227 227 227 227 229 198 190 192 193 193 193 193 193 193 193 193 193 193 193 193 193 193 193 193 
193 193 193 193 193 193 193 193 193 193 193 193 193 193 193 193 193 193 193 192 190 159 175 194 193 193 193 193 193 192 193 184 185 196 194 195 195 195 195 195 195 195 195 184 196 195 195 195 195 195 195 195 195 195 195 195 195 195 195 195 195 196 199 185 149 176 232 233 227 227 227 227 227 227 227 227 227 227 231 180 190 193 193 193 193 193 193 193 193 193 193 193 193 193 193 193 193 
193 193 193 193 193 193 193 193 193 193 193 193 193 193 193 193 193 193 193 192 180 182 158 196 193 193 193 193 193 194 180 191 195 195 195 195 195 195 195 195 195 194 196 184 195 195 195 195 195 195 195 195 195 195 195 195 195 195 195 195 195 195 195 195 198 194 148 181 236 227 227 227 227 227 227 227 227 227 228 218 182 192 193 193 193 193 193 193 193 193 193 193 193 193 193 193 193 
193 193 193 193 193 193 193 193 193 193 193 193 193 193 193 193 193 193 193 192 176 198 135 201 193 193 193 193 190 180 196 194 195 195 195 195 195 195 195 195 195 195 187 190 194 195 195 195 195 195 195 195 195 195 195 195 195 195 195 195 195 195 195 195 195 194 199 177 182 235 227 227 227 227 227 227 227 227 227 231 185 191 193 193 193 193 193 193 193 193 193 193 193 193 193 193 193 
193 193 193 193 193 193 193 193 193 193 193 193 193 193 193 193 193 193 193 192 172 195 169 163 195 192 193 184 184 196 194 195 195 195 195 195 195 195 195 195 195 195 184 195 195 195 195 195 195 195 195 195 195 195 195 195 195 195 195 195 195 195 195 195 195 195 195 198 162 205 233 227 227 227 227 227 227 227 227 228 200 193 192 193 193 193 193 193 193 193 193 193 193 193 193 193 193 
193 193 193 193 193 193 193 193 193 193 193 193 193 193 193 193 193 193 193 192 172 192 199 147 198 194 180 191 195 194 195 195 195 195 195 195 195 195 195 195 194 195 183 195 195 195 195 195 195 195 195 195 195 195 195 195 195 195 195 195 195 195 195 195 195 195 195 195 200 156 195 233 227 227 227 227 227 227 227 227 226 176 192 193 193 193 193 193 193 193 193 193 193 193 193 193 193 
193 193 193 193 193 193 193 193 193 193 193 193 193 193 193 193 193 193 193 192 171 192 198 125 173 185 201 198 196 194 195 195 195 195 195 195 195 195 195 195 194 192 187 195 195 195 195 195 195 195 195 195 195 195 195 195 195 195 195 195 195 195 195 195 195 195 195 195 195 200 157 215 230 227 227 227 227 227 227 227 231 170 192 193 193 193 193 193 193 193 193 193 193 193 193 193 193 
193 193 193 193 193 193 193 193 193 193 193 193 193 193 193 193 193 193 193 192 179 192 193 193 177 155 153 151 168 201 198 194 195 195 195 195 195 195 195 195 195 182 196 194 195 195 195 195 195 195 195 195 195 195 195 195 195 195 195 195 195 195 195 195 195 195 195 195 195 194 201 141 228 228 227 227 227 227 227 227 230 173 192 193 193 193 193 193 193 193 193 193 193 193 193 193 193 
193 193 193 193 193 193 193 193 193 193 193 193 193 193 193 193 193 193 193 192 183 191 183 188 197 198 198 200 183 148 152 196 199 198 194 195 195 195 195 195 195 184 195 195 195 195 195 195 195 195 195 195 195 195 195 195 195 195 195 195 195 195 195 195 195 195 195 195 195 195 194 199 168 233 227 227 227 227 227 227 232 178 192 193 193 193 193 193 193 193 193 193 193 193 193 193 193 
193 193 193 193 193 193 193 193 193 193 193 193 193 193 193 193 193 193 193 192 194 170 193 195 195 195 195 195 196 199 199 155 152 155 201 198 198 195 194 194 198 181 195 195 195 195 195 195 195 195 195 195 195 195 195 195 195 195 195 195 195 195 195 195 195 195 195 195 195 195 195 197 156 235 227 227 227 227 227 227 231 176 192 193 193 193 193 193 193 193 193 193 193 193 193 193 193 
193 193 193 193 193 193 193 193 193 193 193 193 193 193 193 193 193 193 192 194 181 182 189 195 195 195 195 195 195 195 194 198 199 195 148 156 156 184 199 198 192 193 199 196 194 195 195 195 195 195 195 195 195 195 195 195 195 195 195 195 195 195 195 195 195 195 195 195 195 195 195 198 147 227 228 227 227 227 227 227 231 176 192 193 193 193 193 193 193 193 193 193 193 193 193 193 193 
193 193 193 193 193 193 193 193 193 193 193 193 193 193 193 193 193 193 193 183 191 191 180 190 195 194 195 195 195 195 195 195 195 194 199 199 197 168 153 155 153 160 149 166 192 196 196 198 198 198 198 198 198 198 198 198 198 198 197 197 198 197 197 197 197 197 197 197 197 197 197 198 199 171 232 227 227 227 227 227 230 184 191 193 193 193 193 193 193 193 193 193 193 193 193 193 193 
193 193 193 193 193 193 193 193 193 193 193 193 193 193 193 193 193 193 188 188 193 193 191 182 182 197 194 195 195 195 195 195 195 195 195 195 194 196 198 198 190 236 236 214 181 170 163 154 147 148 148 148 148 148 148 148 148 150 154 154 153 156 159 157 156 157 157 157 157 157 156 156 150 159 233 227 227 227 227 227 230 190 191 193 193 193 193 193 193 193 193 193 193 193 193 193 193 
193 193 193 193 193 193 193 193 193 193 193 193 193 193 193 193 193 192 182 194 193 193 193 192 192 174 193 195 195 195 195 195 195 195 195 195 195 195 195 193 199 230 227 228 231 233 233 234 235 235 235 235 235 235 235 235 235 235 234 234 235 234 234 234 234 234 234 234 234 234 234 235 226 225 228 227 227 227 227 227 229 197 190 193 193 193 193 193 193 193 193 193 193 193 193 193 193 
193 193 193 193 193 193 193 193 193 193 193 193 193 193 193 192 195 179 195 192 193 193 193 193 192 190 180 188 196 194 195 195 195 195 195 195 195 195 195 193 198 230 227 227 227 227 227 227 227 227 227 227 227 227 227 227 227 227 227 227 227 227 227 227 227 227 227 227 227 227 227 227 228 228 227 227 227 227 227 227 228 202 191 192 193 193 193 193 193 193 193 193 193 193 193 193 193 
193 193 193 193 193 193 193 193 193 193 193 193 193 193 193 193 182 194 192 193 193 193 193 193 193 192 191 185 177 196 196 196 196 196 194 195 195 195 195 193 197 230 227 227 227 227 227 227 227 227 227 227 227 227 227 227 227 227 227 227 227 227 227 227 227 227 227 227 227 227 227 227 227 227 227 227 227 227 227 227 227 230 171 192 193 193 193 193 193 193 193 193 193 193 193 193 193 
193 193 193 193 193 193 193 193 193 193 193 193 193 193 193 193 183 193 193 193 193 193 193 193 193 193 193 191 193 178 176 174 180 179 196 195 196 196 196 194 197 230 227 227 227 227 227 227 227 227 227 227 227 227 227 227 227 227 227 227 227 227 227 227 227 227 227 227 227 227 227 227 227 227 227 227 227 227 227 227 227 231 180 191 193 193 193 193 193 193 193 193 193 193 193 193 193 
193 193 193 193 193 193 193 193 193 193 193 193 193 193 193 194 178 194 193 193 193 193 193 193 193 193 193 193 192 192 192 192 191 193 177 180 181 180 179 186 201 235 230 230 229 228 228 228 228 227 227 227 227 227 227 227 227 227 227 227 227 227 227 227 227 227 227 227 227 227 227 227 227 227 227 227 227 227 227 227 227 230 190 190 193 193 193 193 193 193 193 193 193 193 193 193 193 
193 193 193 193 193 193 193 193 193 193 193 193 193 193 193 193 194 193 193 193 193 193 193 193 193 193 193 193 193 193 193 193 193 192 192 192 191 190 194 187 161 178 182 189 194 198 203 214 213 225 233 233 233 233 233 231 231 230 229 228 228 227 227 227 227 227 227 227 227 227 227 227 227 227 227 227 227 227 227 227 227 231 188 190 193 193 193 193 193 193 193 193 193 193 193 193 193 
193 193 193 193 193 193 193 193 193 193 193 193 193 193 193 193 193 193 193 193 193 193 193 193 193 193 193 193 193 193 193 193 193 193 193 193 193 193 192 195 182 193 191 191 190 189 191 182 185 177 167 168 168 168 170 178 177 188 194 200 206 225 232 230 230 230 229 228 227 227 227 227 227 227 227 227 227 227 227 227 230 206 184 192 193 193 193 193 193 193 193 193 193 193 193 193 193 
193 193 193 193 193 193 193 193 193 193 193 193 193 193 193 193 193 193 193 193 193 193 193 193 193 193 193 193 193 193 193 193 193 193 193 193 193 193 193 190 183 193 193 193 193 193 192 192 192 192 192 192 192 192 192 192 192 191 190 189 190 175 176 182 185 187 195 200 223 230 229 228 227 227 227 227 227 227 228 233 189 184 191 193 193 193 193 193 193 193 193 193 193 193 193 193 193 
193 193 193 193 193 193 193 193 193 193 193 193 193 193 193 193 193 193 193 193 193 193 193 193 193 193 193 193 193 193 193 193 193 193 193 193 193 193 193 188 181 194 193 193 193 193 193 193 193 193 193 193 193 193 193 193 193 193 193 193 192 192 192 191 191 191 190 191 176 186 195 212 233 233 233 233 233 234 201 176 190 192 193 193 193 193 193 193 193 193 193 193 193 193 193 193 193 
193 193 193 193 193 193 193 193 193 193 193 193 193 193 193 193 193 193 193 193 193 193 193 193 193 193 193 193 193 193 193 193 193 193 193 193 193 193 193 188 187 193 193 193 193 193 193 193 193 193 193 193 193 193 193 193 193 193 193 193 193 193 193 193 193 193 193 192 192 191 190 186 166 168 168 168 168 167 190 191 192 193 193 193 193 193 193 193 193 193 193 193 193 193 193 193 193 
193 193 193 193 193 193 193 193 193 193 193 193 193 193 193 193 193 193 193 193 193 193 193 193 193 193 193 193 193 193 193 193 193 193 193 193 193 193 194 175 195 192 193 193 193 193 193 193 193 193 193 193 193 193 193 193 193 193 193 193 193 193 193 193 193 193 193 193 193 193 193 192 192 192 192 192 192 192 192 193 193 193 193 193 193 193 193 193 193 193 193 193 193 193 193 193 193 
193 193 193 193 193 193 193 193 193 193 193 193 193 193 193 193 193 193 193 193 193 193 193 193 193 193 193 193 193 193 193 193 193 193 193 193 193 193 193 193 192 193 193 193 193 193 193 193 193 193 193 193 193 193 193 193 193 193 193 193 193 193 193 193 193 193 193 193 193 193 193 193 193 193 193 193 193 193 193 193 193 193 193 193 193 193 193 193 193 193 193 193 193 193 193 193 193 
